{"glyphs":{":":{"x_min":0,"x_max":267,"ha":267,"o":"m 56 387 q 56 421 80 445 q 104 469 138 469 q 172 469 196 445 q 220 421 220 387 q 220 353 196 330 q 172 306 138 306 q 104 306 80 330 q 56 354 56 387 z m 14 72 q 14 106 38 129 q 62 153 96 153 q 130 153 153 129 q 177 106 177 72 q 177 38 153 14 q 130 -10 96 -10 q 62 -10 38 14 q 14 38 14 72 z"},"$":{"x_min":0,"x_max":535,"ha":535,"o":"m 242 443 l 262 572 q 231 570 213 553 q 195 537 195 511 q 195 489 207 472 q 219 455 242 443 z m 267 118 q 296 122 316 142 q 335 162 335 189 q 335 211 323 228 q 310 246 287 256 z m 9 65 l 28 183 q 77 153 118 137 q 159 121 194 117 l 222 304 q 149 337 113 386 q 76 436 76 498 q 76 580 132 631 q 187 682 278 683 l 288 752 l 360 752 l 349 678 q 382 673 417 659 q 451 646 488 623 l 473 516 q 435 541 400 554 q 365 568 334 570 l 309 406 q 387 368 423 321 q 459 273 459 208 q 459 118 402 62 q 344 6 248 4 l 230 -117 l 159 -117 l 177 4 q 143 6 101 21 q 60 37 9 65 z"},"?":{"x_min":0,"x_max":405,"ha":405,"o":"m 79 214 q 81 256 97 296 q 114 336 149 380 q 163 397 188 425 q 241 486 241 512 q 241 534 226 548 q 211 562 187 562 q 163 562 127 547 q 92 533 45 503 l 66 649 q 104 672 141 684 q 178 695 217 695 q 290 695 337 648 q 384 601 384 528 q 384 451 289 354 q 278 344 273 339 q 234 299 215 270 q 196 240 191 214 z m 47 72 q 47 106 70 130 q 94 154 128 154 q 162 154 186 130 q 210 106 210 72 q 210 39 186 15 q 162 -9 128 -9 q 94 -9 71 15 q 47 38 47 72 z"},"<":{"x_min":0,"x_max":833,"ha":833,"o":"m 704 583 l 704 476 l 268 298 l 704 120 l 704 13 l 129 250 l 129 347 z"},"'":{"x_min":0,"x_max":172,"ha":172,"o":"m 39 702 l 133 702 l 133 429 l 39 429 z"},"=":{"x_min":0,"x_max":833,"ha":833,"o":"m 124 242 l 709 242 l 709 145 l 124 145 z m 124 452 l 709 452 l 709 355 l 124 355 z"},"a":{"x_min":0,"x_max":532,"ha":532,"o":"m 316 133 l 348 352 q 343 353 338 353 q 332 353 321 353 q 240 353 192 306 q 145 259 145 180 q 145 141 163 119 q 182 96 213 96 q 238 96 263 105 q 289 114 316 133 z m 296 0 l 301 36 q 267 13 236 2 q 205 -9 173 -9 q 99 -9 56 43 q 12 94 12 182 q 12 244 36 297 q 60 351 104 388 q 152 429 216 446 q 280 463 422 463 l 498 463 l 430 0 z"},"L":{"x_min":0,"x_max":532,"ha":532,"o":"m 15 0 l 117 683 l 265 683 l 180 112 l 490 112 l 474 0 z"},"3":{"x_min":0,"x_max":535,"ha":535,"o":"m 10 33 l 29 165 q 72 141 108 130 q 144 118 175 118 q 227 118 260 145 q 293 171 293 211 q 293 250 261 271 q 229 293 169 293 q 158 293 133 291 q 131 291 130 291 l 148 421 q 165 417 182 415 q 200 413 218 413 q 273 413 306 436 q 339 458 339 496 q 339 528 313 547 q 287 567 243 567 q 215 567 179 556 q 142 545 87 521 l 106 657 q 146 675 187 685 q 228 694 270 694 q 365 694 423 643 q 481 593 481 511 q 481 452 450 411 q 419 370 359 350 q 402 328 423 292 q 445 256 445 206 q 445 110 375 49 q 306 -12 196 -12 q 146 -12 99 -1 q 53 10 10 33 z"},";":{"x_min":0,"x_max":267,"ha":267,"o":"m -42 -139 l -28 -76 q 3 -68 25 -50 q 47 -32 61 -5 q 35 7 21 26 q 8 44 8 69 q 8 104 32 128 q 57 152 93 152 q 135 152 163 121 q 191 90 191 43 q 191 -33 126 -85 q 61 -136 -42 -139 z m 56 391 q 56 425 80 449 q 104 473 138 473 q 172 473 196 449 q 219 425 219 391 q 219 357 196 333 q 172 310 138 310 q 104 310 80 334 q 56 357 56 391 z"},"J":{"x_min":0,"x_max":287,"ha":287,"o":"m -111 -223 l -140 -112 q -136 -112 -128 -112 q -121 -113 -117 -113 q -75 -113 -49 -104 q -23 -95 -11 -76 q 2 -57 11 -23 q 20 10 31 90 l 118 683 l 269 683 l 178 71 l 178 70 q 148 -135 95 -181 q 70 -203 30 -214 q -11 -225 -64 -225 q -77 -225 -106 -223 q -109 -223 -111 -223 z"},"V":{"x_min":0,"x_max":569,"ha":569,"o":"m 190 -6 l 56 683 l 198 683 l 266 267 l 449 683 l 598 683 l 272 -6 z"},"\"":{"x_min":0,"x_max":331,"ha":331,"o":"m 198 702 l 292 702 l 292 429 l 198 429 z m 39 702 l 133 702 l 133 429 l 39 429 z"},"7":{"x_min":0,"x_max":535,"ha":535,"o":"m 102 0 l 311 544 l 90 544 l 120 683 l 518 683 l 255 0 z"},"S":{"x_min":0,"x_max":529,"ha":529,"o":"m 28 178 q 88 143 134 126 q 180 110 219 110 q 264 110 292 132 q 321 153 321 187 q 321 231 224 292 q 203 306 191 313 q 127 354 96 397 q 65 441 65 489 q 65 577 134 635 q 204 694 310 694 q 356 694 403 682 q 450 670 499 645 l 476 522 q 429 548 389 561 q 349 573 314 573 q 270 573 242 554 q 215 534 215 504 q 215 467 292 418 q 327 396 346 382 q 416 332 441 292 q 467 253 467 202 q 467 107 402 48 q 337 -12 234 -12 q 175 -12 119 5 q 63 22 6 58 z"},"}":{"x_min":0,"x_max":500,"ha":500,"o":"m 70 721 l 103 721 q 157 721 189 715 q 222 709 244 697 q 272 681 283 652 q 295 623 295 555 l 295 432 q 295 365 320 337 q 345 309 404 309 q 407 309 414 310 q 420 310 424 310 l 424 208 l 406 208 q 345 208 320 181 q 295 153 295 86 l 295 -37 q 295 -107 283 -135 q 272 -164 244 -179 q 221 -191 188 -197 q 156 -203 107 -203 q 101 -203 89 -203 q 77 -202 70 -202 l 70 -100 q 74 -100 82 -101 q 90 -101 93 -101 q 142 -101 159 -82 q 177 -63 177 -4 l 177 113 q 177 186 199 216 q 221 246 278 259 q 221 272 199 302 q 177 333 177 405 l 177 523 q 177 583 159 601 q 142 620 93 620 q 90 620 82 620 q 74 619 70 619 z"},"Z":{"x_min":0,"x_max":677,"ha":677,"o":"m -17 0 l 434 567 l 98 567 l 116 683 l 700 683 l 251 119 l 591 119 l 574 0 z"},"x":{"x_min":0,"x_max":472,"ha":472,"o":"m 105 0 l -67 0 l 153 244 l 13 463 l 165 463 l 241 330 l 350 463 l 506 463 l 310 228 l 444 0 l 291 0 l 219 138 z"},")":{"x_min":0,"x_max":366,"ha":366,"o":"m 160 694 q 211 608 239 512 q 266 417 266 325 q 266 191 209 58 q 152 -74 32 -220 l -72 -220 q 29 -79 78 65 q 127 209 127 366 q 127 453 110 536 q 93 620 60 694 z"},"&":{"x_min":0,"x_max":741,"ha":741,"o":"m 296 428 q 348 454 374 483 q 400 512 400 544 q 400 572 381 592 q 362 611 334 611 q 302 611 281 588 q 260 565 260 529 q 260 508 269 483 q 277 458 296 428 z m 362 141 q 330 170 299 208 q 268 245 235 292 q 192 274 170 247 q 147 219 147 187 q 147 147 172 122 q 197 97 237 97 q 267 97 298 108 q 330 119 362 141 z m 460 221 q 484 244 500 268 q 517 292 526 317 l 645 317 q 630 269 604 228 q 578 186 541 152 q 571 130 603 120 q 634 109 671 108 l 631 -5 q 628 -5 623 -5 q 617 -6 614 -6 q 573 -6 531 12 q 488 29 444 65 q 385 25 332 7 q 279 -12 227 -12 q 137 -12 80 41 q 24 93 24 176 q 24 240 63 289 q 103 339 184 378 q 163 416 153 450 q 142 484 142 512 q 142 592 196 644 q 250 695 335 695 q 410 695 459 652 q 508 608 508 543 q 508 486 467 436 q 427 386 347 346 q 374 308 402 277 q 430 246 460 221 z"},"_":{"x_min":0,"x_max":500,"ha":500,"o":"m 0 -136 l 500 -136 l 500 -236 l 0 -236 z"},"v":{"x_min":0,"x_max":415,"ha":415,"o":"m 105 0 l -13 463 l 123 463 l 181 214 l 307 463 l 452 463 l 200 0 z"},"O":{"x_min":0,"x_max":770,"ha":770,"o":"m 415 567 q 316 567 250 494 q 185 422 185 312 q 185 221 230 169 q 275 117 354 117 q 455 117 520 191 q 585 264 585 379 q 585 461 537 514 q 489 567 415 567 z m 31 298 q 31 378 56 445 q 81 512 131 567 q 187 628 262 661 q 338 694 422 694 q 482 694 532 679 q 583 664 622 634 q 678 592 708 527 q 739 462 739 385 q 739 306 714 237 q 689 168 641 117 q 583 54 509 21 q 435 -11 347 -11 q 286 -11 237 4 q 188 19 148 48 q 93 89 62 156 q 31 222 31 298 z"},"(":{"x_min":0,"x_max":366,"ha":366,"o":"m 175 -220 q 124 -134 96 -38 q 69 58 69 149 q 69 283 126 416 q 183 548 303 694 l 407 694 q 306 553 257 409 q 208 265 208 108 q 208 21 225 -63 q 242 -146 275 -220 z"},"C":{"x_min":0,"x_max":685,"ha":685,"o":"m 569 38 q 519 13 465 0 q 411 -12 355 -12 q 212 -12 123 77 q 33 166 33 307 q 33 390 63 459 q 93 528 152 583 q 214 641 295 668 q 375 695 485 695 q 532 695 577 689 q 622 683 664 670 l 645 545 q 601 556 563 561 q 524 566 490 566 q 349 566 267 495 q 184 425 184 305 q 184 218 236 169 q 289 120 382 120 q 437 120 492 142 q 547 164 595 204 z"},"W":{"x_min":0,"x_max":932,"ha":932,"o":"m 177 -6 l 46 683 l 184 683 l 252 273 l 470 683 l 543 683 l 642 274 l 833 683 l 979 683 l 646 -6 l 578 -6 l 474 420 l 247 -6 z"},"A":{"x_min":0,"x_max":585,"ha":585,"o":"m 219 249 l 374 249 l 335 510 z m -52 0 l 274 683 l 441 683 l 556 0 l 412 0 l 389 149 l 176 149 l 111 0 z"},"f":{"x_min":0,"x_max":309,"ha":309,"o":"m -2 -205 l 81 356 l -13 356 l 3 463 l 97 463 q 114 574 170 632 q 227 691 316 691 q 339 691 366 686 q 393 681 426 671 l 411 559 q 386 567 368 571 q 349 574 333 574 q 291 574 266 547 q 241 520 231 463 l 329 463 l 313 356 l 216 356 l 132 -206 z"},"Q":{"x_min":0,"x_max":770,"ha":770,"o":"m 506 -202 q 418 -178 346 -125 q 273 -72 211 12 q 127 47 79 124 q 31 201 31 298 q 31 378 56 446 q 81 514 130 567 q 187 628 262 661 q 338 694 422 694 q 482 694 532 679 q 583 664 622 634 q 678 592 708 527 q 739 462 739 385 q 739 237 654 132 q 569 26 427 -3 q 467 -42 510 -61 q 554 -80 601 -80 q 610 -80 614 -80 q 618 -80 622 -79 l 637 -92 z m 415 567 q 316 567 250 494 q 185 422 185 312 q 185 221 230 169 q 275 117 354 117 q 455 117 520 191 q 585 264 585 379 q 585 461 537 514 q 489 567 415 567 z"},"w":{"x_min":0,"x_max":694,"ha":694,"o":"m 99 0 l -10 463 l 121 463 l 175 202 l 318 463 l 401 463 l 447 209 l 589 463 l 728 463 l 462 0 l 372 0 l 322 243 l 186 0 z"},"-":{"x_min":0,"x_max":330,"ha":330,"o":"m 8 169 l 26 290 l 287 290 l 269 169 z"},"E":{"x_min":0,"x_max":571,"ha":571,"o":"m 14 0 l 116 683 l 541 683 l 523 562 l 245 562 l 222 406 l 468 406 l 450 290 l 205 290 l 178 112 l 534 112 l 517 0 z"},"s":{"x_min":0,"x_max":368,"ha":368,"o":"m -14 33 l 1 138 l 6 136 q 102 100 143 100 q 159 100 170 108 q 181 116 181 128 q 181 148 139 180 q 114 198 100 211 q 56 251 40 277 q 25 303 25 334 q 25 395 72 434 q 118 472 192 472 q 228 472 263 462 q 299 453 337 433 l 329 323 q 288 343 255 354 q 222 365 202 365 q 187 365 177 358 q 167 352 167 341 q 167 320 215 284 q 240 265 254 253 q 291 222 305 197 q 319 171 319 138 q 319 75 271 33 q 224 -9 150 -9 q 111 -9 69 2 q 27 12 -14 33 z"},">":{"x_min":0,"x_max":833,"ha":833,"o":"m 129 583 l 704 347 l 704 250 l 129 13 l 129 120 l 566 298 l 129 476 z"},"l":{"x_min":0,"x_max":242,"ha":242,"o":"m 6 0 l 108 683 l 240 683 l 138 0 z"},"8":{"x_min":0,"x_max":535,"ha":535,"o":"m 172 372 q 140 395 124 425 q 108 456 108 496 q 108 579 170 637 q 231 695 320 695 q 400 695 453 646 q 506 598 506 525 q 506 463 472 420 q 439 377 375 356 q 420 337 446 295 q 471 253 471 197 q 471 107 407 48 q 343 -12 247 -12 q 149 -12 89 42 q 29 97 29 183 q 29 251 67 302 q 105 353 172 372 z m 311 569 q 283 569 264 542 q 244 515 244 476 q 244 450 257 435 q 270 421 293 421 q 321 421 340 448 q 360 475 360 514 q 360 540 347 554 q 334 569 311 569 z m 265 291 q 227 291 201 262 q 176 234 176 192 q 176 157 194 137 q 212 117 243 117 q 280 117 305 146 q 329 175 329 221 q 329 252 311 271 q 293 291 265 291 z"},"\\":{"x_min":0,"x_max":285,"ha":285,"o":"m 152 -93 l 44 694 l 122 694 l 230 -93 z"},"e":{"x_min":0,"x_max":509,"ha":509,"o":"m 411 28 q 374 9 330 0 q 286 -10 239 -10 q 135 -10 74 51 q 13 111 13 215 q 13 330 83 401 q 154 472 269 472 q 362 472 413 418 q 464 365 464 266 q 464 254 463 241 q 462 228 461 215 l 154 215 q 154 212 153 208 q 153 203 153 201 q 153 151 182 125 q 212 99 268 99 q 300 99 341 111 q 381 123 436 149 z m 173 295 l 330 295 l 330 304 q 330 340 313 359 q 296 378 264 378 q 231 378 208 357 q 185 336 173 295 z"},"b":{"x_min":0,"x_max":530,"ha":530,"o":"m 1 10 l 101 683 l 237 683 l 198 427 q 231 450 261 461 q 292 472 322 472 q 396 472 442 415 q 489 358 489 266 q 489 132 406 61 q 322 -10 165 -10 q 125 -10 84 -5 q 43 0 1 10 z m 148 99 q 152 99 158 99 q 165 98 168 98 q 256 98 304 140 q 352 181 352 256 q 352 304 332 331 q 312 358 277 358 q 251 358 228 345 q 204 332 180 304 z"},"%":{"x_min":0,"x_max":972,"ha":972,"o":"m 215 -12 l 676 694 l 758 694 l 295 -12 z m 650 191 q 650 152 677 125 q 704 98 743 98 q 782 98 809 125 q 836 152 836 191 q 836 230 809 257 q 782 284 743 284 q 704 284 677 257 q 650 230 650 191 z m 539 191 q 539 276 598 336 q 658 395 743 395 q 828 395 887 336 q 947 276 947 191 q 947 106 887 47 q 828 -12 743 -12 q 658 -12 598 47 q 539 106 539 191 z m 136 490 q 136 451 163 424 q 190 397 229 397 q 268 397 295 424 q 322 451 322 490 q 322 529 295 556 q 268 583 229 583 q 190 583 163 556 q 136 529 136 490 z m 25 490 q 25 576 84 635 q 144 694 229 694 q 314 694 374 635 q 433 575 433 490 q 433 405 374 346 q 314 287 229 287 q 144 287 84 346 q 25 405 25 490 z"},"m":{"x_min":0,"x_max":824,"ha":824,"o":"m 3 0 l 72 463 l 206 463 l 198 407 q 232 440 270 456 q 308 472 353 472 q 396 472 424 453 q 452 435 467 394 q 516 433 559 453 q 602 472 641 472 q 703 472 737 438 q 771 404 771 342 q 771 325 768 299 q 766 273 760 233 l 725 0 l 589 0 l 634 294 q 634 295 634 297 q 636 312 636 318 q 636 345 625 358 q 613 371 590 371 q 565 371 535 354 q 505 336 477 305 l 432 0 l 297 0 l 342 294 q 342 295 342 297 q 344 312 344 319 q 344 345 333 358 q 321 371 299 371 q 271 371 241 353 q 211 335 182 302 l 137 0 z"},"#":{"x_min":0,"x_max":769,"ha":769,"o":"m 346 414 l 303 295 l 426 295 l 468 414 z m 346 715 l 454 715 l 383 512 l 501 512 l 573 715 l 681 715 l 609 512 l 747 512 l 711 414 l 574 414 l 533 296 l 675 296 l 640 198 l 498 198 l 426 -5 l 318 -5 l 390 198 l 271 198 l 198 -5 l 91 -5 l 162 198 l 22 198 l 59 296 l 197 296 l 239 414 l 93 414 l 129 512 l 274 512 z"},",":{"x_min":0,"x_max":268,"ha":268,"o":"m -42 -146 l -28 -83 q 3 -75 26 -57 q 49 -39 62 -12 q 36 0 22 20 q 8 39 8 63 q 8 98 32 122 q 56 145 93 145 q 135 145 163 114 q 191 83 191 36 q 191 -38 125 -91 q 59 -143 -42 -146 z"},"n":{"x_min":0,"x_max":529,"ha":529,"o":"m 3 0 l 72 463 l 205 463 l 197 411 q 235 442 273 457 q 310 472 351 472 q 410 472 444 438 q 477 404 477 345 q 477 332 476 319 q 475 306 473 294 l 429 0 l 293 0 l 335 280 q 337 293 338 304 q 339 314 339 321 q 339 344 328 357 q 317 371 299 371 q 272 371 242 354 q 212 336 181 302 l 136 0 z"},"h":{"x_min":0,"x_max":529,"ha":529,"o":"m 2 0 l 104 683 l 237 683 l 196 411 q 236 443 273 458 q 311 472 351 472 q 410 472 444 438 q 477 404 477 345 q 477 332 476 319 q 475 306 473 294 l 429 0 l 293 0 l 335 280 q 335 285 336 293 q 339 312 339 318 q 339 343 328 357 q 318 371 299 371 q 273 371 243 354 q 214 337 180 302 l 135 0 z"},"z":{"x_min":0,"x_max":454,"ha":454,"o":"m -22 0 l -22 18 l 222 353 l 28 353 l 45 463 l 440 463 l 440 446 l 205 111 l 411 111 l 395 0 z"},"B":{"x_min":0,"x_max":640,"ha":640,"o":"m 228 415 l 306 415 q 364 415 393 436 q 421 457 421 499 q 421 539 394 559 q 367 579 313 579 l 252 579 z m 181 108 l 300 108 q 369 108 406 135 q 444 162 444 212 q 444 267 407 289 q 371 312 278 312 l 212 312 z m 17 0 l 119 683 l 250 683 q 345 683 382 680 q 419 676 445 668 q 501 651 531 611 q 562 571 562 515 q 562 465 538 429 q 514 392 468 372 q 527 348 559 303 q 591 259 591 202 q 591 160 573 123 q 555 86 521 58 q 483 27 429 13 q 375 0 280 0 z"},"K":{"x_min":0,"x_max":650,"ha":650,"o":"m 14 0 l 116 683 l 267 683 l 224 397 l 497 683 l 682 683 l 380 376 l 642 0 l 475 0 l 218 356 l 165 0 z"},"R":{"x_min":0,"x_max":620,"ha":620,"o":"m 221 386 l 224 386 q 261 384 277 384 q 358 384 395 407 q 432 430 432 479 q 432 526 399 548 q 366 571 297 571 q 278 571 268 570 q 257 570 248 569 z m 15 0 l 117 683 l 274 683 q 358 683 405 676 q 451 669 480 654 q 528 628 556 583 q 583 538 583 483 q 583 412 544 364 q 505 315 435 300 q 464 284 501 219 q 539 153 605 0 l 447 0 q 428 38 398 101 q 354 194 339 216 q 318 248 292 262 q 267 276 229 276 q 219 276 214 276 q 208 275 204 275 l 163 0 z"},"T":{"x_min":0,"x_max":604,"ha":604,"o":"m 179 0 l 264 567 l 44 567 l 60 683 l 647 683 l 631 567 l 414 567 l 329 0 z"},"P":{"x_min":0,"x_max":595,"ha":595,"o":"m 220 368 q 232 367 245 366 q 257 365 269 365 q 343 365 382 393 q 420 420 420 473 q 420 522 382 548 q 345 574 274 574 q 270 574 262 574 q 255 573 251 573 z m 16 0 l 118 683 l 236 683 q 345 683 387 677 q 430 671 459 657 q 511 632 540 586 q 569 539 569 481 q 569 370 497 312 q 426 254 288 254 l 203 254 l 166 0 z"},"|":{"x_min":0,"x_max":500,"ha":500,"o":"m 200 764 l 301 764 l 301 -236 l 200 -236 z"},"t":{"x_min":0,"x_max":370,"ha":370,"o":"m 320 21 q 290 6 260 -1 q 230 -9 201 -9 q 130 -9 93 30 q 56 68 56 143 q 56 153 58 169 q 60 184 63 203 l 89 359 l -5 359 l 11 463 l 106 463 l 122 559 l 258 559 l 243 463 l 346 463 l 331 359 l 228 359 l 203 192 q 203 190 203 188 q 201 175 201 169 q 201 144 212 131 q 222 119 244 119 q 256 119 275 125 q 293 131 320 144 z"},"M":{"x_min":0,"x_max":953,"ha":953,"o":"m -22 0 l 207 683 l 367 683 l 466 242 l 703 683 l 856 683 l 885 0 l 743 0 l 727 472 l 476 0 l 397 0 l 285 484 l 125 0 z"},"g":{"x_min":0,"x_max":506,"ha":506,"o":"m 177 -44 q 136 -53 113 -67 q 90 -81 90 -97 q 90 -118 116 -129 q 142 -140 192 -140 q 243 -140 267 -130 q 292 -120 292 -99 q 292 -82 266 -69 q 240 -56 177 -44 z m 240 372 q 208 372 187 347 q 165 322 165 284 q 165 253 181 234 q 198 215 224 215 q 257 215 278 241 q 299 267 299 308 q 299 336 282 354 q 266 372 240 372 z m 106 165 q 70 188 51 221 q 32 254 32 295 q 32 332 50 366 q 68 399 100 423 q 131 445 177 454 q 223 463 340 463 l 503 463 l 487 360 l 417 361 q 424 340 428 324 q 431 308 431 294 q 431 221 375 173 q 319 125 231 125 q 228 125 217 125 q 205 126 196 126 q 175 126 163 119 q 152 112 152 100 q 152 81 236 67 q 258 63 271 61 q 349 47 390 11 q 430 -25 430 -80 q 430 -153 368 -192 q 305 -231 188 -231 q 80 -231 21 -201 q -39 -171 -39 -118 q -39 -82 -9 -52 q 21 -23 73 -9 q 43 9 29 29 q 15 49 15 72 q 15 106 40 131 q 64 156 106 165 z"},"j":{"x_min":0,"x_max":238,"ha":238,"o":"m -99 -218 l -84 -111 q -42 -109 -24 -86 q -6 -63 6 16 l 72 463 l 206 463 l 139 9 q 139 6 137 -1 q 119 -122 82 -166 q 58 -194 26 -209 q -6 -223 -46 -223 q -55 -223 -66 -222 q -78 -221 -99 -218 z m 87 593 q 87 622 107 642 q 127 662 156 662 q 185 662 206 642 q 226 622 226 593 q 226 564 205 544 q 185 524 156 524 q 127 524 107 544 q 87 564 87 593 z"},"i":{"x_min":0,"x_max":242,"ha":242,"o":"m 85 593 q 85 622 105 642 q 125 662 154 662 q 183 662 203 642 q 223 622 223 593 q 223 564 203 544 q 183 524 154 524 q 125 524 105 544 q 85 564 85 593 z m 6 0 l 75 463 l 207 463 l 138 0 z"},"y":{"x_min":0,"x_max":438,"ha":438,"o":"m 116 44 l -28 463 l 108 463 l 197 206 l 322 463 l 461 463 l 125 -227 l -14 -227 z"},"@":{"x_min":0,"x_max":1000,"ha":1000,"o":"m 570 133 q 543 92 508 73 q 473 53 425 53 q 348 53 307 95 q 267 137 267 219 q 267 336 335 415 q 403 494 503 494 q 542 494 571 478 q 600 462 618 430 l 644 478 l 731 478 l 659 186 q 658 181 657 175 q 656 169 656 166 q 656 149 667 140 q 679 132 702 132 q 721 132 742 142 q 763 151 781 169 q 823 208 844 260 q 866 312 866 375 q 866 492 776 568 q 685 643 542 643 q 473 643 414 626 q 354 610 306 577 q 223 521 178 438 q 134 354 134 255 q 134 105 235 15 q 336 -74 505 -74 q 584 -74 659 -50 q 735 -26 800 19 l 840 -38 q 765 -94 681 -123 q 598 -151 507 -151 q 413 -151 334 -127 q 256 -104 195 -57 q 119 2 82 79 q 44 156 44 254 q 44 335 70 409 q 95 483 145 544 q 217 632 319 678 q 420 723 545 723 q 627 723 700 701 q 772 679 826 638 q 892 587 925 521 q 957 456 957 373 q 957 292 925 224 q 893 156 833 108 q 799 81 759 66 q 718 52 675 52 q 623 52 597 72 q 571 93 570 133 z m 594 342 q 588 381 566 402 q 544 423 509 423 q 453 423 412 362 q 371 302 371 217 q 371 172 391 148 q 411 125 448 125 q 489 125 522 156 q 556 187 568 236 z"},".":{"x_min":0,"x_max":267,"ha":267,"o":"m 18 72 q 18 106 42 130 q 65 154 99 154 q 133 154 157 130 q 181 106 181 72 q 181 39 157 15 q 133 -9 99 -9 q 65 -9 42 15 q 18 38 18 72 z"},"p":{"x_min":0,"x_max":545,"ha":545,"o":"m 173 113 q 183 111 194 110 q 205 109 216 109 q 285 109 324 153 q 363 196 363 273 q 363 322 337 350 q 312 378 267 378 q 254 378 241 375 q 227 372 211 366 z m -12 -227 l 67 303 q 35 284 13 253 q -9 222 -13 222 q -17 222 -18 224 q -19 226 -19 231 q -19 261 8 304 q 35 348 79 384 l 103 545 l 238 545 l 224 457 q 247 464 268 468 q 289 472 308 472 q 394 472 450 418 q 507 364 507 283 q 507 155 426 75 q 345 -6 217 -6 q 200 -6 159 -2 l 156 -2 l 122 -227 z"},"X":{"x_min":0,"x_max":708,"ha":708,"o":"m -34 0 l 270 353 l 75 683 l 238 683 l 370 456 l 564 683 l 742 683 l 440 339 l 641 0 l 477 0 l 338 231 l 142 0 z"},"*":{"x_min":0,"x_max":505,"ha":505,"o":"m 290 453 l 315 299 l 230 299 l 254 453 l 163 326 l 103 386 l 229 479 l 75 454 l 75 539 l 229 514 l 103 607 l 163 667 l 254 540 l 230 694 l 315 694 l 290 541 l 382 667 l 442 607 l 316 514 l 469 539 l 469 454 l 316 479 l 442 386 l 382 326 z"},"Y":{"x_min":0,"x_max":537,"ha":537,"o":"m 146 0 l 186 287 l 42 683 l 189 683 l 276 426 l 432 683 l 589 683 l 334 283 l 294 0 z"},"c":{"x_min":0,"x_max":477,"ha":477,"o":"m 389 12 q 351 1 314 -4 q 278 -9 243 -9 q 143 -9 78 52 q 14 113 14 208 q 14 322 98 397 q 182 472 312 472 q 342 472 373 467 q 404 461 436 451 l 419 328 q 385 338 358 343 q 331 348 310 348 q 242 348 198 310 q 154 271 154 212 q 154 162 184 135 q 214 109 272 109 q 302 109 336 118 q 370 127 408 146 z"},"!":{"x_min":0,"x_max":328,"ha":328,"o":"m 98 215 q 104 309 110 431 q 116 554 118 572 q 125 635 147 665 q 168 695 206 695 q 237 695 255 674 q 272 653 272 615 q 272 576 208 325 q 191 254 181 215 z m 38 70 q 38 104 62 128 q 86 152 120 152 q 154 152 178 128 q 202 104 202 70 q 202 36 178 12 q 154 -12 120 -12 q 86 -12 62 12 q 38 36 38 70 z"},"/":{"x_min":0,"x_max":285,"ha":285,"o":"m 46 -93 l -32 -93 l 217 694 l 296 694 z"},"[":{"x_min":0,"x_max":404,"ha":404,"o":"m 439 683 l 422 567 l 286 567 l 187 -93 l 324 -93 l 307 -209 l 41 -209 l 174 683 z"},"6":{"x_min":0,"x_max":535,"ha":535,"o":"m 168 191 q 168 159 186 139 q 205 120 236 120 q 279 120 308 152 q 337 185 337 231 q 337 265 320 283 q 304 302 273 302 q 230 302 199 269 q 168 236 168 191 z m 264 404 q 285 412 304 416 q 324 420 341 420 q 405 420 445 374 q 484 328 484 251 q 484 136 413 62 q 342 -12 232 -12 q 138 -12 82 46 q 26 104 26 200 q 26 256 47 312 q 68 368 122 451 l 274 683 l 434 683 z"},"r":{"x_min":0,"x_max":401,"ha":401,"o":"m 8 0 l 77 463 l 211 463 l 202 399 q 241 443 264 458 q 287 472 310 472 q 329 472 350 464 q 371 457 394 441 l 329 300 q 311 320 295 329 q 279 339 265 339 q 245 339 224 323 q 204 307 183 276 l 142 0 z"},"2":{"x_min":0,"x_max":535,"ha":535,"o":"m 8 0 l 8 37 q 144 205 219 323 q 294 442 294 489 q 294 521 274 541 q 254 560 220 560 q 196 560 161 544 q 125 529 80 498 l 102 646 q 143 671 180 683 q 218 695 256 695 q 336 695 389 642 q 442 590 442 511 q 442 449 405 374 q 368 299 247 139 l 412 139 l 396 0 z"},"{":{"x_min":0,"x_max":500,"ha":500,"o":"m 431 721 l 431 619 q 427 619 419 620 q 411 620 408 620 q 359 620 342 601 q 324 583 324 522 l 324 405 q 324 333 302 302 q 280 272 223 259 q 280 246 302 216 q 324 186 324 114 l 324 -4 q 324 -64 341 -83 q 358 -101 408 -101 q 411 -101 419 -101 q 427 -100 431 -100 l 431 -202 q 424 -202 412 -203 q 400 -203 394 -203 q 345 -203 312 -197 q 280 -191 257 -179 q 229 -163 218 -135 q 206 -106 206 -37 l 206 86 q 206 153 181 181 q 156 209 97 209 q 94 209 87 208 q 81 208 77 208 l 77 310 q 81 310 87 310 q 94 309 97 309 q 156 309 181 337 q 206 366 206 433 l 206 555 q 206 625 218 653 q 229 682 257 698 q 280 710 312 716 q 345 722 394 722 q 400 722 412 722 q 424 721 431 721 z"},"9":{"x_min":0,"x_max":535,"ha":535,"o":"m 363 492 q 363 524 345 543 q 327 562 295 562 q 252 562 223 530 q 194 498 194 451 q 194 417 210 399 q 227 381 258 381 q 301 381 332 414 q 363 447 363 492 z m 267 279 q 244 271 226 266 q 207 262 191 262 q 127 262 87 309 q 47 355 47 432 q 47 546 118 620 q 188 694 299 694 q 393 694 449 637 q 505 580 505 483 q 505 427 484 371 q 463 315 409 232 l 257 0 l 97 0 z"}," ":{"x_min":0,"x_max":267,"ha":267,"o":""},"I":{"x_min":0,"x_max":291,"ha":291,"o":"m 19 0 l 120 683 l 272 683 l 170 0 z"},"H":{"x_min":0,"x_max":745,"ha":745,"o":"m 13 0 l 115 683 l 265 683 l 225 416 l 541 416 l 581 683 l 731 683 l 629 0 l 479 0 l 520 280 l 205 280 l 163 0 z"},"4":{"x_min":0,"x_max":535,"ha":535,"o":"m 132 255 l 273 255 l 306 472 z m 233 0 l 257 156 l 23 156 l 23 274 l 360 682 l 474 682 l 413 255 l 486 255 l 473 156 l 400 156 l 378 0 z"},"~":{"x_min":0,"x_max":833,"ha":833,"o":"m 747 392 l 747 284 q 696 250 651 233 q 606 217 562 217 q 540 217 517 221 q 495 225 472 232 q 460 236 438 244 q 331 281 275 281 q 233 281 188 262 q 143 244 87 204 l 87 312 q 139 347 187 365 q 234 382 276 382 q 333 382 418 354 l 420 353 q 429 350 447 344 q 522 317 564 317 q 605 317 649 335 q 693 353 747 392 z"},"D":{"x_min":0,"x_max":736,"ha":736,"o":"m 186 115 l 310 115 q 419 115 482 175 q 545 234 545 336 q 545 445 476 506 q 407 568 284 568 q 271 568 265 568 q 259 567 254 567 z m 19 0 l 121 683 q 135 683 162 684 q 189 684 202 684 q 326 684 399 673 q 472 662 520 637 q 606 592 653 513 q 699 434 699 332 q 699 265 678 208 q 657 150 617 105 q 566 49 493 25 q 420 0 302 0 z"},"^":{"x_min":0,"x_max":1000,"ha":1000,"o":"m 438 713 l 561 713 l 796 439 l 681 439 l 500 620 l 318 439 l 203 439 z"},"0":{"x_min":0,"x_max":535,"ha":535,"o":"m 29 265 q 29 362 54 446 q 79 529 127 592 q 165 642 210 668 q 255 694 304 694 q 396 694 451 619 q 507 544 507 418 q 507 329 481 244 q 455 159 408 94 q 371 42 324 15 q 277 -13 226 -13 q 132 -13 81 60 q 29 133 29 265 z m 297 564 q 276 564 258 547 q 240 531 222 493 q 199 444 184 376 q 170 308 170 241 q 170 173 185 145 q 199 117 233 117 q 254 117 272 133 q 290 149 306 182 q 332 234 348 302 q 364 371 364 430 q 364 496 347 530 q 330 564 297 564 z"},"F":{"x_min":0,"x_max":498,"ha":498,"o":"m 15 0 l 117 683 l 505 683 l 487 564 l 246 564 l 222 406 l 432 406 l 415 293 l 205 293 l 162 0 z"},"`":{"x_min":0,"x_max":500,"ha":500,"o":"m 350 526 l 293 526 l 146 696 l 250 696 z"},"k":{"x_min":0,"x_max":494,"ha":494,"o":"m 0 0 l 102 683 l 234 683 l 171 261 l 337 463 l 497 463 l 303 237 l 484 0 l 325 0 l 165 219 l 132 0 z"},"u":{"x_min":0,"x_max":529,"ha":529,"o":"m 68 463 l 204 463 l 162 183 q 160 170 159 160 q 158 150 158 145 q 158 120 169 106 q 179 92 198 92 q 225 92 255 110 q 285 127 316 161 l 361 463 l 495 463 l 426 0 l 292 0 l 300 52 q 262 21 224 6 q 187 -9 146 -9 q 87 -9 53 25 q 20 59 20 118 q 20 131 21 144 q 22 157 24 169 z"},"]":{"x_min":0,"x_max":404,"ha":404,"o":"m -65 -209 l -48 -93 l 88 -93 l 187 567 l 50 567 l 67 683 l 333 683 l 200 -209 z"},"U":{"x_min":0,"x_max":769,"ha":769,"o":"m 120 683 l 269 683 l 220 357 q 214 316 212 290 q 209 264 209 249 q 209 187 249 152 q 289 118 362 118 q 441 118 482 165 q 523 212 541 328 l 594 683 l 747 683 l 690 306 q 676 211 653 158 q 630 104 591 69 q 547 30 483 8 q 420 -13 346 -13 q 214 -13 138 56 q 62 126 62 246 q 62 269 64 294 q 66 320 70 349 z"},"o":{"x_min":0,"x_max":530,"ha":530,"o":"m 11 213 q 11 324 87 399 q 162 473 275 473 q 371 473 431 413 q 491 352 491 257 q 491 143 416 66 q 340 -10 227 -10 q 128 -10 70 51 q 11 111 11 213 z m 266 362 q 218 362 184 318 q 150 273 150 209 q 150 159 173 130 q 197 101 237 101 q 285 101 318 145 q 351 188 351 253 q 351 302 328 332 q 304 362 266 362 z"},"N":{"x_min":0,"x_max":768,"ha":768,"o":"m 16 0 l 118 683 l 267 683 l 540 227 l 601 683 l 751 683 l 650 0 l 516 0 l 232 474 l 165 0 z"},"+":{"x_min":0,"x_max":833,"ha":833,"o":"m 367 596 l 466 596 l 466 347 l 709 347 l 709 250 l 466 250 l 466 0 l 367 0 l 367 250 l 124 250 l 124 347 l 367 347 z"},"G":{"x_min":0,"x_max":728,"ha":728,"o":"m 710 671 l 690 542 q 642 556 597 562 q 553 569 514 569 q 365 569 273 495 q 181 422 181 304 q 181 214 237 166 q 293 118 397 118 q 413 118 432 120 q 451 121 480 125 l 498 250 l 371 250 l 387 361 l 662 361 l 609 8 q 564 -2 521 -7 q 479 -12 437 -12 q 238 -12 133 66 q 28 144 28 293 q 28 380 67 458 q 106 535 179 592 q 244 643 331 668 q 418 694 528 694 q 573 694 618 688 q 664 683 710 671 z"},"q":{"x_min":0,"x_max":530,"ha":530,"o":"m 350 363 q 346 363 340 364 q 334 364 324 364 q 242 364 194 323 q 147 282 147 211 q 147 163 167 135 q 188 108 224 108 q 249 108 272 121 q 296 135 321 163 z m 496 454 l 395 -227 l 264 -227 l 300 31 q 270 12 241 3 q 212 -6 183 -6 q 104 -6 57 51 q 9 107 9 200 q 9 330 92 401 q 175 471 329 471 q 369 471 410 467 q 452 462 496 454 z"},"d":{"x_min":0,"x_max":532,"ha":532,"o":"m 311 100 l 348 353 q 343 354 337 354 q 331 354 319 354 q 240 354 196 315 q 152 277 152 209 q 152 156 188 127 q 224 99 291 99 q 294 99 301 100 q 308 100 311 100 z m 432 7 q 393 -1 359 -5 q 325 -9 297 -9 q 228 -9 184 0 q 140 9 109 30 q 62 61 37 108 q 12 155 12 212 q 12 329 94 400 q 176 471 313 471 q 326 471 339 470 q 353 469 366 468 l 398 683 l 533 683 z"},"1":{"x_min":0,"x_max":535,"ha":535,"o":"m 145 0 l 246 683 l 389 683 l 287 0 z"},"5":{"x_min":0,"x_max":535,"ha":535,"o":"m 0 41 l 43 167 q 81 144 113 133 q 145 122 175 122 q 230 122 263 149 q 297 175 297 219 q 297 263 259 292 q 221 321 162 321 q 146 321 128 318 q 111 315 92 309 l 151 683 l 471 683 l 449 539 l 273 539 l 255 427 q 344 415 394 362 q 445 309 445 227 q 445 123 372 55 q 298 -12 184 -12 q 141 -12 95 1 q 50 14 0 41 z"}}}
